<?xml version="1.0" encoding="UTF-8"?>
<svg id="Layer_1" data-name="Layer 1" xmlns="http://www.w3.org/2000/svg" viewBox="0 0 532.92 532.92">
  <defs>
    <style>
      .cls-1 {
        fill: #1fff96;
      }

      .cls-2 {
        fill: #fff;
      }
    </style>
  </defs>
  <circle class="cls-2" cx="266.46" cy="266.46" r="266.46"/>
  <path class="cls-1" d="M287.46,41.85h-.05c-6.9-.64-13.89-.96-20.95-.96-6.39,0-12.72.27-18.97.79h-.03c-115.69,9.65-206.57,106.6-206.57,224.78s90.88,215.13,206.57,224.78c6.26.52,12.6.79,19,.79,7.08,0,14.09-.33,21-.96,114.73-10.6,204.57-107.11,204.57-224.61S402.19,52.45,287.46,41.85ZM247.46,451.5c-93.79-9.51-167-88.73-167-185.04S153.67,90.93,247.46,81.42v370.08ZM287.46,451.29V81.63c92.83,10.43,165,89.21,165,184.83s-72.17,174.4-165,184.83Z"/>
</svg>